<svg id="Layer_1" data-name="Layer 1" xmlns="http://www.w3.org/2000/svg" xmlns:xlink="http://www.w3.org/1999/xlink" viewBox="0 0 62.18 123.67"><defs><style>.cls-1{fill:url(#linear-gradient);}.cls-2{fill:url(#linear-gradient-2);}.cls-3{fill:url(#linear-gradient-3);}.cls-4{fill:url(#linear-gradient-4);}.cls-5{fill:url(#linear-gradient-5);}.cls-6{fill:url(#linear-gradient-6);}.cls-7{opacity:0.47;fill:url(#linear-gradient-7);}.cls-13,.cls-32,.cls-7{isolation:isolate;}.cls-8{fill:url(#linear-gradient-8);}.cls-9{fill:url(#linear-gradient-9);}.cls-10{fill:url(#linear-gradient-10);}.cls-11{fill:url(#linear-gradient-11);}.cls-12,.cls-32{fill:url(#linear-gradient-12);}.cls-13{opacity:0.41;fill:url(#linear-gradient-13);}.cls-14{fill:url(#linear-gradient-14);}.cls-15{fill:url(#linear-gradient-15);}.cls-16{fill:url(#linear-gradient-16);}.cls-17{fill:url(#linear-gradient-17);}.cls-18{fill:url(#linear-gradient-18);}.cls-19{fill:url(#linear-gradient-19);}.cls-20{fill:url(#linear-gradient-20);}.cls-21{fill:url(#linear-gradient-21);}.cls-22{fill:url(#linear-gradient-22);}.cls-23{fill:url(#linear-gradient-23);}.cls-24{fill:url(#linear-gradient-24);}.cls-25{fill:url(#linear-gradient-25);}.cls-26{fill:url(#linear-gradient-26);}.cls-27{fill:url(#linear-gradient-27);}.cls-28{fill:url(#linear-gradient-28);}.cls-29{fill:url(#linear-gradient-29);}.cls-30{fill:url(#linear-gradient-30);}.cls-31{fill:url(#linear-gradient-31);}.cls-32{opacity:0.39;}.cls-33{fill:url(#linear-gradient-33);}</style><linearGradient id="linear-gradient" x1="30.84" y1="123.53" x2="30.84" y2="0.47" gradientUnits="userSpaceOnUse"><stop offset="0" stop-color="#23bf00"/><stop offset="0.31" stop-color="#e8e900"/><stop offset="0.5" stop-color="#ff8700"/><stop offset="0.7" stop-color="#e90600"/><stop offset="1" stop-color="#ff559c"/></linearGradient><linearGradient id="linear-gradient-2" x1="18.74" y1="91.37" x2="18.74" y2="60.93" xlink:href="#linear-gradient"/><linearGradient id="linear-gradient-3" x1="33.27" y1="100.24" x2="33.27" y2="86.33" xlink:href="#linear-gradient"/><linearGradient id="linear-gradient-4" x1="20.13" y1="99.05" x2="20.13" y2="89.7" xlink:href="#linear-gradient"/><linearGradient id="linear-gradient-5" x1="13.72" y1="91.34" x2="13.72" y2="84.49" xlink:href="#linear-gradient"/><linearGradient id="linear-gradient-6" x1="24.52" y1="77.32" x2="24.52" y2="71.27" xlink:href="#linear-gradient"/><linearGradient id="linear-gradient-7" x1="27.41" y1="85.67" x2="27.41" y2="78.34" xlink:href="#linear-gradient"/><linearGradient id="linear-gradient-8" x1="30.26" y1="64.09" x2="30.26" y2="57.75" xlink:href="#linear-gradient"/><linearGradient id="linear-gradient-9" x1="32.59" y1="65.43" x2="32.59" y2="60.86" xlink:href="#linear-gradient"/><linearGradient id="linear-gradient-10" x1="39.74" y1="97.25" x2="39.74" y2="94.57" xlink:href="#linear-gradient"/><linearGradient id="linear-gradient-11" x1="13.77" y1="84.77" x2="13.77" y2="83.23" xlink:href="#linear-gradient"/><linearGradient id="linear-gradient-12" x1="41.54" y1="80.07" x2="41.54" y2="70.34" xlink:href="#linear-gradient"/><linearGradient id="linear-gradient-13" x1="38.88" y1="86.99" x2="38.88" y2="81.36" xlink:href="#linear-gradient"/><linearGradient id="linear-gradient-14" x1="34.86" y1="67.01" x2="34.86" y2="65.82" xlink:href="#linear-gradient"/><linearGradient id="linear-gradient-15" x1="35.83" y1="68.66" x2="35.83" y2="67.47" xlink:href="#linear-gradient"/><linearGradient id="linear-gradient-16" x1="36.07" y1="70.7" x2="36.07" y2="69.51" xlink:href="#linear-gradient"/><linearGradient id="linear-gradient-17" x1="21.14" y1="99.97" x2="21.14" y2="99.05" xlink:href="#linear-gradient"/><linearGradient id="linear-gradient-18" x1="19.69" y1="100.67" x2="19.69" y2="99.75" xlink:href="#linear-gradient"/><linearGradient id="linear-gradient-19" x1="18.23" y1="100.33" x2="18.23" y2="99.41" xlink:href="#linear-gradient"/><linearGradient id="linear-gradient-20" x1="42.27" y1="88.08" x2="42.27" y2="87.16" xlink:href="#linear-gradient"/><linearGradient id="linear-gradient-21" x1="40.82" y1="88.78" x2="40.82" y2="87.85" xlink:href="#linear-gradient"/><linearGradient id="linear-gradient-22" x1="39.37" y1="88.44" x2="39.37" y2="87.51" xlink:href="#linear-gradient"/><linearGradient id="linear-gradient-23" x1="10.78" y1="87.83" x2="10.78" y2="87.06" xlink:href="#linear-gradient"/><linearGradient id="linear-gradient-24" x1="10.81" y1="86.37" x2="10.81" y2="85.6" xlink:href="#linear-gradient"/><linearGradient id="linear-gradient-25" x1="11.58" y1="85.27" x2="11.58" y2="84.49" xlink:href="#linear-gradient"/><linearGradient id="linear-gradient-26" x1="46.42" y1="77.38" x2="46.42" y2="76.47" xlink:href="#linear-gradient"/><linearGradient id="linear-gradient-27" x1="45.59" y1="78.86" x2="45.59" y2="77.91" xlink:href="#linear-gradient"/><linearGradient id="linear-gradient-28" x1="44.18" y1="79.51" x2="44.18" y2="78.54" xlink:href="#linear-gradient"/><linearGradient id="linear-gradient-29" x1="39.01" y1="99.28" x2="39.01" y2="98.36" xlink:href="#linear-gradient"/><linearGradient id="linear-gradient-30" x1="37.95" y1="100.61" x2="37.95" y2="99.69" xlink:href="#linear-gradient"/><linearGradient id="linear-gradient-31" x1="36.44" y1="101.34" x2="36.44" y2="100.42" xlink:href="#linear-gradient"/><linearGradient id="linear-gradient-33" x1="25.75" y1="122.78" x2="25.75" y2="87.06" xlink:href="#linear-gradient"/></defs><title>Artboard 1</title><path class="cls-1" d="M47,111a24.88,24.88,0,0,1-3.47,4.55,27.22,27.22,0,0,1-13.3,7.34,24.21,24.21,0,0,1-4.43.67c-.12,0-10.67-.14-18.43-7.33C2.67,111.82-2.35,103.43.63,88.33A71.42,71.42,0,0,1,5.15,73.39a44.59,44.59,0,0,1,2.54-5,36.35,36.35,0,0,1,2.39-3.57c1.15-1.51,5.81-7.57,11.79-8.57,2.39-.41,2.37-2.3,1.05-5C19.29,43.72,5.76,29.83,5.35,23.1,5.09,18.73,1.92,4.09,4,1.76c.71-.81,16.19,22.06,17.25,22C24,23.59,23,3.82,24.52.52c.52-1.16,6.07,19.9,7.25,19.9,1.9,0,13-18.61,14.25-19.89.35-.37.6,12.13.73,17.89A1,1,0,0,0,48.5,19L61.92.53c1.25,18-36.72,55-34.51,56.06,3.88.63,10.77,4.06,13.18,7.13a49.27,49.27,0,0,1,7.27,13.94,66.43,66.43,0,0,1,2.34,8.15l0,.13c1.72,10.15.64,18.57-3.18,25Z"/><path class="cls-2" d="M21.54,74a4.54,4.54,0,0,1,.64-5.57c1.57-1.65,4.21-1.62,5.82.78a7.78,7.78,0,0,1-.88,9.22c-2.44,2.58-6.51,2.41-8.88-1.38a11.7,11.7,0,0,1,1.51-13.53c3.54-3.73,9.53-3.73,13.3,1.63,3.91,5.58,3.86,15.41-1.87,21.47C27.51,90.53,11.06,95,1.72,86.58v-.12c9.94,8.59,25.39,2.43,28.71-1.08,5.19-5.49,5.26-14.4,1.72-19.47C28.74,61,23.29,61,20.06,64.41a10.64,10.64,0,0,0-1.37,12.32c2.16,3.43,5.85,3.59,8.08,1.24a7.08,7.08,0,0,0,.8-8.37c-1.47-2.18-3.87-2.22-5.3-.72a4.08,4.08,0,0,0-.57,5c.95,1.48.89,1.74-.15.11Z"/><path class="cls-3" d="M31.82,94.66a2.41,2.41,0,0,0,1.49,2.55,1.93,1.93,0,0,0,2.48-1.76,3.71,3.71,0,0,0-2.25-4c-1.63-.58-3.45.48-3.77,2.78A5.54,5.54,0,0,0,33.19,100c2.36.82,5.06-.63,5.69-4a8.53,8.53,0,0,0-5.14-9.28,5.49,5.49,0,0,0-6.2,1.27l.5.63a5,5,0,0,1,5.61-1.14,7.74,7.74,0,0,1,4.68,8.4c-.56,3-3,4.37-5.17,3.62a5,5,0,0,1-3.11-5.25c.29-2.08,1.94-3,3.43-2.52a3.37,3.37,0,0,1,2.05,3.6A1.77,1.77,0,0,1,33.27,97a2.21,2.21,0,0,1-1.36-2.32c.14-.9.05-1-.09,0Z"/><path class="cls-4" d="M19.1,93.91a1.54,1.54,0,0,0-1.17,1.52A1.3,1.3,0,0,0,19.4,96.8a2.34,2.34,0,0,0,1.83-2.31,2,2,0,0,0-2.29-2.06,3.53,3.53,0,0,0-2.63,3.46A3,3,0,0,0,19.63,99c2.09-.22,4.25-2.44,4.31-5.32a4.35,4.35,0,0,0-1.89-4l-.26.46a4,4,0,0,1,1.7,3.64,4.89,4.89,0,0,1-3.9,4.84,2.71,2.71,0,0,1-3-2.86A3.2,3.2,0,0,1,19,92.63,1.77,1.77,0,0,1,21,94.5a2.12,2.12,0,0,1-1.66,2.1A1.18,1.18,0,0,1,18,95.36,1.4,1.4,0,0,1,19.11,94c.53-.08.58-.16,0-.07Z"/><path class="cls-5" d="M14.79,87.59a1.15,1.15,0,0,0-.12-1.37.83.83,0,0,0-1.34.15,1.77,1.77,0,0,0,.17,2.12,1.26,1.26,0,0,0,2.05-.28,2.66,2.66,0,0,0-.31-3.1,1.91,1.91,0,0,0-3.05.32,4.1,4.1,0,0,0,.34,4.92,2.55,2.55,0,0,0,2.76.88l-.08-.37a2.3,2.3,0,0,1-2.5-.8,3.73,3.73,0,0,1-.32-4.46,1.74,1.74,0,0,1,2.78-.3,2.43,2.43,0,0,1,.27,2.83,1.14,1.14,0,0,1-1.86.25,1.61,1.61,0,0,1-.15-1.92.75.75,0,0,1,1.22-.14,1.06,1.06,0,0,1,.11,1.24c-.22.34-.21.4,0,0Z"/><path class="cls-6" d="M24.87,77.32a8.11,8.11,0,0,0,1.25-4c-.07-1.84-.95-2-1.81-2-1.15,0-1.43.36-1.38,1.29.07,1.55,2.74,3.51,1.94,4.76Z"/><path class="cls-7" d="M30.79,78.34c.41,1.22-.95,4.51-2,5.83-1.59,2-3,1.72-3.86.84-1.15-1.17-1.18-1.78-.41-2.76,1.3-1.64,6.11-1.66,6.3-3.91Z"/><path class="cls-8" d="M31,64.09a7.77,7.77,0,0,1-2.16-3.5c-.36-1.77.32-2.56,1.13-2.77,1.07-.28,2.28.34,1.59.82-1.38,1-1.63,4.47-.56,5.45Z"/><path class="cls-9" d="M33.12,65.43a5.71,5.71,0,0,1-1.54-2.53c-.26-1.27.23-1.84.81-2,.76-.2,1.63.24,1.13.59-1,.69-1.16,3.22-.4,3.93Z"/><path class="cls-10" d="M38.83,94.57a3.75,3.75,0,0,0,.18,2c.36.76.83.83,1.18.64s.72-.86.34-.82c-.76.1-1.82-1.09-1.7-1.77Z"/><path class="cls-11" d="M13.24,84.77a1.93,1.93,0,0,0,.9-.62c.26-.38.17-.65,0-.79s-.59-.18-.47,0a1.21,1.21,0,0,1-.43,1.4Z"/><path class="cls-12" d="M36.57,80a13.17,13.17,0,0,0,7.61-2.07c2.73-2.1,2.69-4.32,1.74-5.83-1.26-2-2-2.18-3.4-1.14-2.3,1.74-3.12,9.15-6,9Z"/><path class="cls-13" d="M34,84.69A11,11,0,0,0,40.12,87c2.75-.12,3.63-1.68,3.59-3.19-.05-2-.52-2.49-1.89-2.44-2.29.09-5.89,4.79-7.78,3.33Z"/><path class="cls-14" d="M34.31,66.42a.58.58,0,0,1,.55-.6.57.57,0,0,1,.54.6.56.56,0,0,1-.54.59A.57.57,0,0,1,34.31,66.42Z"/><path class="cls-15" d="M35.29,68.06a.54.54,0,1,1,1.08,0,.54.54,0,1,1-1.08,0Z"/><path class="cls-16" d="M35.53,70.11a.54.54,0,1,1,1.08,0,.54.54,0,1,1-1.08,0Z"/><path class="cls-17" d="M21.44,99.2a.49.49,0,0,1,0,.65.4.4,0,0,1-.6,0,.49.49,0,0,1,0-.65.38.38,0,0,1,.59,0Z"/><path class="cls-18" d="M20,99.89a.5.5,0,0,1,0,.66.4.4,0,0,1-.6,0,.49.49,0,0,1,0-.65.4.4,0,0,1,.59,0Z"/><path class="cls-19" d="M18.54,99.55a.5.5,0,0,1,0,.66.4.4,0,0,1-.59,0,.5.5,0,0,1,0-.66.41.41,0,0,1,.6,0Z"/><path class="cls-20" d="M42.58,87.3a.49.49,0,0,1,0,.65.38.38,0,0,1-.59,0,.49.49,0,0,1,0-.65.41.41,0,0,1,.6,0Z"/><path class="cls-21" d="M41.13,88a.49.49,0,0,1,0,.65.39.39,0,0,1-.59,0,.49.49,0,0,1,0-.65.39.39,0,0,1,.6,0Z"/><path class="cls-22" d="M39.67,87.66a.5.5,0,0,1,0,.65.39.39,0,0,1-.6,0,.49.49,0,0,1,0-.65.38.38,0,0,1,.59,0Z"/><path class="cls-23" d="M10.89,87.81a.36.36,0,0,1-.46-.24.4.4,0,0,1,.23-.49.35.35,0,0,1,.46.23.41.41,0,0,1-.23.5Z"/><path class="cls-24" d="M10.92,86.35a.34.34,0,0,1-.45-.24.39.39,0,0,1,.23-.49.36.36,0,0,1,.46.24.4.4,0,0,1-.24.49Z"/><path class="cls-25" d="M11.7,85.24a.35.35,0,0,1-.46-.23.42.42,0,0,1,.23-.5.36.36,0,0,1,.46.24A.4.4,0,0,1,11.7,85.24Z"/><path class="cls-26" d="M46.51,76.48a.47.47,0,0,1,.31.55.39.39,0,0,1-.48.34.48.48,0,0,1-.31-.56A.39.39,0,0,1,46.51,76.48Z"/><path class="cls-27" d="M45.69,77.93a.48.48,0,0,1,.32.56.44.44,0,0,1-.51.36.49.49,0,0,1-.32-.57.42.42,0,0,1,.51-.35Z"/><path class="cls-28" d="M44.28,78.55a.48.48,0,0,1,.33.57.46.46,0,0,1-.53.38.48.48,0,0,1-.33-.58.44.44,0,0,1,.53-.37Z"/><path class="cls-29" d="M39.15,98.39a.47.47,0,0,1,.26.59.39.39,0,0,1-.53.27.49.49,0,0,1-.27-.59A.41.41,0,0,1,39.15,98.39Z"/><path class="cls-30" d="M38.09,99.72a.48.48,0,0,1,.26.59.4.4,0,0,1-.54.27.47.47,0,0,1-.26-.59A.4.4,0,0,1,38.09,99.72Z"/><path class="cls-31" d="M36.58,100.45a.47.47,0,0,1,.26.59.4.4,0,0,1-.53.27.47.47,0,0,1-.27-.59A.41.41,0,0,1,36.58,100.45Z"/><path class="cls-32" d="M36.57,80a13.17,13.17,0,0,0,7.61-2.07c2.73-2.1,2.69-4.32,1.74-5.83-1.26-2-2-2.18-3.4-1.14-2.3,1.74-3.12,9.15-6,9Z"/><path class="cls-33" d="M26.44,108.13a4.25,4.25,0,0,1,1.69,5.36,4.18,4.18,0,0,1-6.13,2,7.28,7.28,0,0,1-3-8.79c1.36-3.46,5.48-5.16,9.42-2.8a10.91,10.91,0,0,1,4.13,13c-2,5-7.94,7.74-13.93,4.57-6.22-3.28-10.27-12.24-7.07-20.37,2-5.2,16.56-16.78,29.38-13.37l.06.11c-13.49-3.28-26.32,9.37-28.17,14.07-2.89,7.37.76,15.5,6.39,18.49,5.44,2.9,10.88.42,12.68-4.14a9.93,9.93,0,0,0-3.77-11.83c-3.58-2.14-7.32-.59-8.56,2.55a6.59,6.59,0,0,0,2.68,8,3.88,3.88,0,1,0,4-6.61c-1.56-.91-1.61-1.17.11-.17Z"/></svg>