<?xml version="1.0" encoding="utf-8"?>
<!-- Generator: Adobe Illustrator 26.0.2, SVG Export Plug-In . SVG Version: 6.00 Build 0)  -->
<svg version="1.1" id="Layer_1" xmlns="http://www.w3.org/2000/svg" xmlns:xlink="http://www.w3.org/1999/xlink" x="0px" y="0px"
	 viewBox="0 0 140 42" style="enable-background:new 0 0 140 42;" xml:space="preserve">
<style type="text/css">
	.st0{fill-rule:evenodd;clip-rule:evenodd;fill:#00894B;}
	.st1{fill-rule:evenodd;clip-rule:evenodd;fill:#7B868C;}
	.st2{fill-rule:evenodd;clip-rule:evenodd;fill:url(#SVGID_1_);}
	.st3{fill-rule:evenodd;clip-rule:evenodd;fill:url(#SVGID_00000182517506175071463630000010549893717474779039_);}
</style>
<g>
	<path class="st0" d="M15.79,12.67h7.81v11.17c-1.22,0.39-2.45,0.68-3.71,0.88c-1.26,0.2-2.71,0.3-4.37,0.3
		c-3.48,0-6.19-1.03-8.13-3.1c-1.94-2.07-2.91-4.97-2.91-8.7c0-2.39,0.48-4.48,1.44-6.28c0.96-1.8,2.34-3.17,4.14-4.12
		c1.8-0.95,3.91-1.42,6.33-1.42c2.45,0,4.74,0.45,6.85,1.35l-1.04,2.36c-2.07-0.88-4.07-1.32-5.99-1.32c-2.8,0-4.98,0.83-6.55,2.5
		c-1.57,1.67-2.36,3.98-2.36,6.93c0,3.1,0.76,5.45,2.27,7.06c1.51,1.6,3.74,2.4,6.67,2.4c1.59,0,3.15-0.18,4.67-0.55v-7.07h-5.14
		V12.67L15.79,12.67z M29.56,7.48L29.56,7.48v11.17c0,1.4,0.32,2.45,0.96,3.14c0.64,0.69,1.64,1.04,3,1.04
		c1.8,0,3.12-0.49,3.95-1.48c0.83-0.98,1.25-2.59,1.25-4.83V7.48h2.61v17.23h-2.15l-0.38-2.31h-0.14c-0.53,0.85-1.28,1.5-2.22,1.95
		c-0.95,0.45-2.03,0.68-3.25,0.68c-2.1,0-3.66-0.5-4.71-1.49c-1.04-1-1.56-2.59-1.56-4.78V7.48H29.56L29.56,7.48z M45.04,2.81
		L45.04,2.81c0-0.6,0.15-1.03,0.44-1.31c0.29-0.28,0.66-0.42,1.1-0.42c0.42,0,0.78,0.14,1.08,0.42c0.3,0.28,0.46,0.72,0.46,1.3
		c0,0.59-0.15,1.02-0.46,1.31c-0.3,0.29-0.67,0.43-1.08,0.43c-0.44,0-0.81-0.14-1.1-0.43C45.19,3.84,45.04,3.4,45.04,2.81
		L45.04,2.81z M47.87,24.71L47.87,24.71h-2.61V7.48h2.61V24.71L47.87,24.71z M73.75,24.71L73.75,24.71V13.5
		c0-1.37-0.29-2.4-0.88-3.09c-0.59-0.69-1.5-1.03-2.73-1.03c-1.62,0-2.82,0.47-3.6,1.4c-0.78,0.93-1.16,2.37-1.16,4.31v9.62h-2.61
		V13.5c0-1.37-0.29-2.4-0.88-3.09c-0.59-0.69-1.5-1.03-2.75-1.03c-1.63,0-2.83,0.49-3.59,1.47c-0.76,0.98-1.14,2.59-1.14,4.82v9.04
		h-2.61V7.48h2.12l0.42,2.36h0.13c0.49-0.84,1.19-1.49,2.08-1.96c0.9-0.47,1.9-0.71,3.01-0.71c2.69,0,4.45,0.97,5.28,2.92h0.13
		c0.51-0.9,1.26-1.61,2.23-2.14c0.97-0.52,2.08-0.79,3.33-0.79c1.95,0,3.41,0.5,4.38,1.5c0.97,1,1.45,2.6,1.45,4.8v11.24H73.75
		L73.75,24.71z M90.72,24.71L90.72,24.71l-0.52-2.45h-0.13c-0.86,1.08-1.72,1.81-2.57,2.19c-0.85,0.38-1.92,0.57-3.2,0.57
		c-1.71,0-3.05-0.44-4.02-1.32c-0.97-0.88-1.45-2.13-1.45-3.76c0-3.48,2.78-5.3,8.35-5.47l2.92-0.09v-1.07
		c0-1.35-0.29-2.35-0.87-2.99c-0.58-0.64-1.51-0.97-2.79-0.97c-1.44,0-3.06,0.44-4.87,1.32l-0.8-2c0.85-0.46,1.78-0.82,2.79-1.08
		c1.01-0.26,2.02-0.39,3.04-0.39c2.05,0,3.58,0.46,4.57,1.37c0.99,0.91,1.49,2.37,1.49,4.39v11.76H90.72L90.72,24.71z M84.82,22.87
		L84.82,22.87c1.62,0,2.9-0.45,3.83-1.34c0.93-0.89,1.39-2.14,1.39-3.74v-1.56l-2.61,0.11c-2.07,0.07-3.57,0.4-4.49,0.97
		c-0.92,0.57-1.38,1.46-1.38,2.66c0,0.94,0.28,1.66,0.86,2.15C83,22.62,83.8,22.87,84.82,22.87z"/>
	<path class="st1" d="M32.91,29.76c-1.31,0-2.34,0.44-3.1,1.31c-0.76,0.87-1.14,2.06-1.14,3.58c0,1.56,0.37,2.76,1.1,3.61
		c0.73,0.85,1.77,1.27,3.12,1.27c0.83,0,1.78-0.15,2.84-0.45v1.21c-0.82,0.31-1.84,0.46-3.05,0.46c-1.75,0-3.11-0.53-4.06-1.6
		c-0.95-1.06-1.43-2.58-1.43-4.53c0-1.23,0.23-2.3,0.69-3.22c0.46-0.92,1.12-1.63,1.99-2.13c0.87-0.5,1.88-0.75,3.06-0.75
		c1.25,0,2.34,0.23,3.27,0.68l-0.59,1.19C34.71,29.97,33.81,29.76,32.91,29.76L32.91,29.76z M45.41,36.13L45.41,36.13
		c0,1.45-0.37,2.59-1.1,3.41c-0.73,0.82-1.74,1.23-3.04,1.23c-0.8,0-1.51-0.19-2.12-0.56c-0.62-0.37-1.1-0.91-1.43-1.61
		c-0.34-0.7-0.5-1.52-0.5-2.46c0-1.45,0.36-2.59,1.09-3.4c0.73-0.81,1.74-1.22,3.03-1.22c1.25,0,2.24,0.42,2.98,1.25
		C45.04,33.59,45.41,34.71,45.41,36.13L45.41,36.13z M38.61,36.13L38.61,36.13c0,1.14,0.23,2.01,0.68,2.6
		c0.46,0.6,1.13,0.9,2.01,0.9c0.88,0,1.56-0.3,2.01-0.89c0.46-0.59,0.69-1.46,0.69-2.61c0-1.13-0.23-2-0.69-2.58
		c-0.46-0.59-1.14-0.88-2.03-0.88c-0.88,0-1.55,0.29-2,0.87C38.84,34.11,38.61,34.97,38.61,36.13L38.61,36.13z M53.47,40.59
		L53.47,40.59v-5.77c0-0.73-0.17-1.27-0.5-1.63c-0.33-0.36-0.85-0.54-1.56-0.54c-0.93,0-1.62,0.25-2.05,0.76
		c-0.43,0.5-0.65,1.34-0.65,2.5v4.68h-1.35v-8.92h1.1l0.22,1.22h0.07c0.28-0.44,0.66-0.78,1.16-1.02c0.5-0.24,1.06-0.36,1.67-0.36
		c1.07,0,1.88,0.26,2.43,0.78c0.54,0.52,0.81,1.35,0.81,2.49v5.82H53.47L53.47,40.59z M64.1,37.43L64.1,37.43
		c0,1.05-0.38,1.86-1.14,2.45c-0.76,0.59-1.79,0.88-3.09,0.88c-1.41,0-2.5-0.18-3.26-0.55v-1.33c0.49,0.21,1.02,0.37,1.6,0.49
		c0.58,0.12,1.15,0.18,1.71,0.18c0.92,0,1.62-0.18,2.08-0.53c0.47-0.35,0.7-0.84,0.7-1.46c0-0.41-0.08-0.75-0.25-1.01
		c-0.17-0.26-0.44-0.51-0.83-0.73c-0.39-0.22-0.98-0.48-1.77-0.76c-1.11-0.4-1.9-0.87-2.37-1.41c-0.47-0.54-0.71-1.25-0.71-2.12
		c0-0.92,0.34-1.65,1.03-2.19c0.69-0.54,1.6-0.81,2.74-0.81c1.18,0,2.27,0.22,3.26,0.65l-0.43,1.2c-0.98-0.41-1.94-0.62-2.87-0.62
		c-0.73,0-1.31,0.16-1.72,0.47c-0.41,0.32-0.62,0.75-0.62,1.31c0,0.41,0.08,0.75,0.23,1.01c0.15,0.26,0.41,0.5,0.77,0.72
		c0.36,0.22,0.91,0.46,1.66,0.73c1.25,0.44,2.11,0.92,2.58,1.43C63.86,35.95,64.1,36.61,64.1,37.43L64.1,37.43z M69.68,40.76
		L69.68,40.76c-1.32,0-2.36-0.4-3.12-1.2c-0.76-0.8-1.14-1.92-1.14-3.35c0-1.44,0.35-2.58,1.06-3.43c0.71-0.85,1.66-1.27,2.85-1.27
		c1.12,0,2,0.37,2.65,1.1c0.65,0.74,0.98,1.71,0.98,2.91v0.86h-6.15c0.03,1.05,0.29,1.84,0.79,2.39c0.5,0.54,1.21,0.81,2.12,0.81
		c0.96,0,1.91-0.2,2.85-0.6v1.2c-0.48,0.21-0.93,0.35-1.35,0.44C70.8,40.71,70.28,40.76,69.68,40.76L69.68,40.76z M69.31,32.64
		L69.31,32.64c-0.72,0-1.29,0.23-1.71,0.7c-0.43,0.47-0.68,1.11-0.75,1.94h4.66c0-0.85-0.19-1.5-0.57-1.96
		C70.56,32.87,70.02,32.64,69.31,32.64L69.31,32.64z M80.15,29.76L80.15,29.76c-1.31,0-2.34,0.44-3.1,1.31
		c-0.76,0.87-1.14,2.06-1.14,3.58c0,1.56,0.36,2.76,1.09,3.61c0.73,0.85,1.77,1.27,3.12,1.27c0.83,0,1.78-0.15,2.84-0.45v1.21
		c-0.82,0.31-1.84,0.46-3.05,0.46c-1.75,0-3.11-0.53-4.06-1.6c-0.95-1.06-1.43-2.58-1.43-4.53c0-1.23,0.23-2.3,0.69-3.22
		c0.46-0.92,1.12-1.63,1.99-2.13c0.87-0.5,1.88-0.75,3.06-0.75c1.25,0,2.34,0.23,3.27,0.68l-0.59,1.19
		C81.95,29.97,81.05,29.76,80.15,29.76L80.15,29.76z M92.65,36.13L92.65,36.13c0,1.45-0.37,2.59-1.1,3.41
		c-0.73,0.82-1.74,1.23-3.04,1.23c-0.8,0-1.51-0.19-2.12-0.56c-0.62-0.37-1.1-0.91-1.43-1.61c-0.34-0.7-0.5-1.52-0.5-2.46
		c0-1.45,0.36-2.59,1.09-3.4c0.73-0.81,1.74-1.22,3.03-1.22c1.25,0,2.24,0.42,2.97,1.25C92.28,33.59,92.65,34.71,92.65,36.13
		L92.65,36.13z M85.85,36.13L85.85,36.13c0,1.14,0.23,2.01,0.68,2.6c0.46,0.6,1.13,0.9,2.01,0.9c0.88,0,1.56-0.3,2.01-0.89
		c0.46-0.59,0.69-1.46,0.69-2.61c0-1.13-0.23-2-0.69-2.58c-0.46-0.59-1.14-0.88-2.03-0.88c-0.88,0-1.55,0.29-2,0.87
		C86.08,34.11,85.85,34.97,85.85,36.13z"/>
	<g>
		<polygon class="st0" points="126.41,26.09 116.49,20.92 126.41,15.75 136.33,20.92 		"/>
		<linearGradient id="SVGID_1_" gradientUnits="userSpaceOnUse" x1="102.7459" y1="34.6636" x2="130.6023" y2="6.8076">
			<stop  offset="0" style="stop-color:#00894B"/>
			<stop  offset="0.28" style="stop-color:#00894B"/>
			<stop  offset="0.56" style="stop-color:#31A049"/>
			<stop  offset="0.74" style="stop-color:#72BE44"/>
			<stop  offset="1" style="stop-color:#72BE44"/>
		</linearGradient>
		<path class="st2" d="M126.41,26.09L126.41,26.09c-1.87,3.57-5.61,6.01-9.92,6.01c-6.17,0-11.18-5.01-11.18-11.18
			c0-6.17,5.01-11.18,11.18-11.18c4.31,0,8.05,2.44,9.91,6.01h9.24c-2.27-8.45-9.99-14.67-19.16-14.67
			c-10.96,0-19.84,8.88-19.84,19.84c0,10.96,8.88,19.84,19.84,19.84c10.96,0,19.84-8.88,19.84-19.84L126.41,26.09z"/>
		<path class="st0" d="M126.4,15.75h9.22c-1.97-6.3-7.85-10.87-14.8-10.87c-8.57,0-15.51,6.94-15.51,15.51c0,0.12,0,0.23,0,0.34
			c0.1-6.09,5.07-10.99,11.18-10.99C120.8,9.74,124.54,12.18,126.4,15.75z"/>
		
			<linearGradient id="SVGID_00000000218940326058101430000009501497843843061657_" gradientUnits="userSpaceOnUse" x1="96.2797" y1="30.8387" x2="135.9214" y2="30.8387">
			<stop  offset="0" style="stop-color:#00894B"/>
			<stop  offset="0.28" style="stop-color:#00894B"/>
			<stop  offset="0.56" style="stop-color:#31A049"/>
			<stop  offset="0.74" style="stop-color:#72BE44"/>
			<stop  offset="1" style="stop-color:#72BE44"/>
		</linearGradient>
		<path style="fill-rule:evenodd;clip-rule:evenodd;fill:url(#SVGID_00000000218940326058101430000009501497843843061657_);" d="
			M116.49,40.76c10.96,0,19.84-8.88,19.84-19.84l-9.92,5.17l0-0.01c-0.03,0.06-0.06,0.11-0.09,0.17c-2.17,5.83-7.77,9.98-14.35,9.98
			c-8.45,0-15.31-6.85-15.31-15.31C96.65,31.88,105.53,40.76,116.49,40.76z"/>
	</g>
</g>
</svg>
