<?xml version="1.0" standalone="no"?>
<!DOCTYPE svg PUBLIC "-//W3C//DTD SVG 20010904//EN"
 "http://www.w3.org/TR/2001/REC-SVG-20010904/DTD/svg10.dtd">
<svg version="1.0" xmlns="http://www.w3.org/2000/svg"
 width="1280.000000pt" height="1280.000000pt" viewBox="0 0 1280.000000 1280.000000"
 preserveAspectRatio="xMidYMid meet">
<metadata>
Created by potrace 1.14, written by Peter Selinger 2001-2017
</metadata>
<g transform="translate(0.000000,1280.000000) scale(0.100000,-0.100000)"
fill="#000000" stroke="none">
<path d="M6568 12635 c-2 -2 -28 -5 -58 -6 -30 -1 -59 -4 -64 -7 -4 -2 -29 -6
-55 -8 -179 -14 -385 -89 -489 -178 -71 -62 -110 -177 -92 -276 l8 -41 -22 20
c-12 11 -44 32 -71 47 -159 85 -375 8 -624 -222 -35 -33 -71 -58 -80 -56 -9 2
-43 12 -76 22 -33 10 -82 21 -110 25 -27 4 -61 9 -75 11 -44 7 -223 7 -290 0
-84 -9 -250 -50 -331 -82 -138 -54 -312 -150 -302 -166 3 -7 1 -8 -6 -4 -11 7
-99 -51 -142 -93 -9 -9 -34 -31 -56 -48 -68 -55 -213 -206 -213 -222 0 -8 -3
-12 -6 -8 -3 3 -30 -24 -60 -61 -30 -37 -58 -72 -63 -79 -12 -13 -150 -218
-168 -248 -144 -238 -229 -409 -368 -740 -7 -16 -25 -64 -40 -105 -15 -41 -31
-84 -36 -95 -11 -24 -76 -215 -90 -265 -5 -19 -14 -44 -18 -55 -5 -11 -14 -33
-19 -50 -6 -16 -14 -39 -18 -50 -4 -11 -8 -22 -9 -25 -1 -3 -7 -18 -13 -33 -7
-16 -12 -31 -12 -35 0 -6 -62 -171 -85 -227 -6 -16 -18 -46 -25 -65 -24 -66
-82 -205 -111 -267 -16 -34 -29 -64 -29 -66 0 -8 -138 -285 -167 -337 -14 -25
-45 -76 -69 -113 -25 -37 -42 -72 -39 -78 4 -5 2 -8 -2 -7 -5 2 -32 -25 -61
-58 -117 -142 -221 -194 -310 -157 -66 27 -145 134 -167 226 -4 15 -11 29 -15
32 -5 3 -4 -11 2 -31 5 -20 11 -44 13 -53 4 -20 37 -118 63 -186 10 -27 24
-49 31 -47 7 1 10 -2 6 -7 -7 -12 53 -131 65 -131 5 0 12 -9 15 -21 7 -20 96
-115 144 -152 41 -33 152 -79 177 -74 13 2 21 1 19 -3 -3 -4 13 -10 36 -13
106 -14 137 -97 106 -287 -5 -31 -55 -198 -67 -225 -43 -96 -60 -137 -60 -146
0 -6 -7 -23 -15 -37 -47 -85 -104 -216 -98 -225 3 -5 2 -8 -3 -4 -5 3 -38 -49
-73 -116 -35 -67 -73 -138 -85 -159 -172 -299 -215 -370 -273 -456 -24 -35
-43 -67 -43 -72 0 -4 -4 -10 -8 -12 -22 -9 -122 -201 -167 -323 -55 -145 -78
-227 -100 -365 -4 -25 -9 -54 -11 -65 -2 -11 -7 -63 -10 -115 -3 -52 -8 -97
-9 -99 -2 -1 0 -14 6 -28 5 -13 6 -22 1 -20 -18 12 4 -241 35 -393 8 -41 15
-81 16 -87 0 -7 4 -13 9 -13 5 0 6 -5 3 -10 -9 -14 38 -147 88 -250 43 -88
121 -194 201 -274 44 -45 90 -88 101 -96 11 -8 36 -27 55 -41 123 -91 380
-195 535 -215 22 -3 51 -7 65 -9 14 -2 28 -4 31 -4 3 -1 39 -52 79 -113 40
-62 81 -125 91 -140 11 -15 19 -29 19 -32 0 -2 19 -35 42 -72 89 -147 188
-355 219 -458 19 -65 21 -133 5 -165 -9 -17 -21 -31 -26 -31 -11 0 -30 -33
-36 -63 -5 -28 25 -133 42 -148 8 -6 14 -16 14 -21 0 -9 57 -97 69 -108 4 -3
18 -21 32 -40 15 -19 43 -53 62 -75 20 -22 37 -44 37 -48 0 -5 4 -5 10 -2 5 3
10 0 10 -7 0 -7 29 -41 64 -76 41 -39 63 -69 61 -80 -2 -9 -6 -39 -9 -67 -3
-27 -8 -66 -11 -85 -10 -62 -68 -233 -89 -265 -39 -56 -64 -85 -75 -85 -6 0
-11 -4 -11 -9 0 -18 -96 -33 -136 -22 -54 15 -63 14 -57 -7 4 -18 125 -140
213 -216 153 -132 379 -352 460 -446 30 -36 57 -67 60 -70 11 -11 58 -87 79
-127 25 -50 27 -110 5 -142 -14 -20 -86 -59 -122 -67 -25 -5 -62 -35 -62 -49
0 -36 236 -20 468 31 189 42 453 141 522 197 86 68 113 296 74 632 -3 28 -7
66 -9 85 -2 19 -6 53 -9 75 -3 22 -8 63 -12 90 -3 28 -8 53 -10 56 -2 4 -6 31
-10 60 -4 30 -8 61 -10 69 -1 8 -6 36 -10 63 -3 26 -10 47 -13 47 -4 0 -6 12
-5 27 0 16 -3 42 -7 58 -4 17 -11 50 -14 75 -4 24 -8 47 -10 51 -2 3 -7 21
-10 40 -3 19 -8 41 -10 49 -2 8 -7 29 -10 45 -2 17 -7 41 -10 55 -21 95 -26
117 -30 135 -3 11 -7 29 -9 40 -2 11 -10 43 -16 70 -6 28 -13 59 -16 70 -2 11
-10 47 -18 80 -21 85 -97 397 -101 415 -1 8 -10 42 -19 75 -9 33 -19 71 -22
85 -3 14 -9 27 -15 28 -5 2 -7 8 -4 13 3 5 -12 77 -34 161 -23 84 -43 164 -47
178 -3 14 -8 32 -11 40 -3 8 -7 21 -9 29 -3 17 -36 136 -95 341 -22 80 -44
159 -49 175 -8 32 -131 453 -152 520 -7 22 -15 42 -18 45 -48 45 -350 454
-350 475 0 5 -63 108 -70 115 -11 11 -140 281 -140 293 0 7 -6 21 -13 32 -7
11 -21 46 -31 77 -11 32 -23 55 -27 52 -5 -3 -6 1 -3 9 3 8 -2 39 -10 68 -32
112 -46 204 -50 329 -8 284 112 441 336 441 l64 0 0 80 c-1 43 -4 79 -8 79 -4
0 -5 7 -1 16 10 26 10 148 0 168 -6 13 -6 16 2 12 8 -5 11 14 12 61 1 37 2 79
4 93 1 14 6 63 10 110 4 47 9 94 11 105 2 10 11 60 19 110 9 49 21 107 27 128
11 38 12 36 39 -100 95 -486 222 -812 382 -976 148 -153 385 -264 631 -296 68
-9 379 -7 421 2 11 3 49 8 84 12 185 20 434 91 583 166 181 91 264 164 405
359 181 251 319 555 373 825 21 105 68 168 154 205 87 37 213 14 276 -51 26
-28 66 -112 73 -155 36 -210 171 -527 323 -754 42 -63 79 -117 83 -120 3 -3
18 -21 32 -40 171 -227 506 -385 924 -435 28 -4 61 -8 75 -11 14 -2 99 -6 190
-9 258 -6 441 29 614 119 198 103 310 216 411 416 l35 70 48 -24 c89 -45 175
-168 197 -281 3 -16 8 -41 10 -55 7 -32 6 -231 0 -289 -9 -80 -45 -240 -79
-351 -25 -84 -29 -107 -17 -98 44 34 77 59 86 66 94 68 211 157 215 161 3 4
17 14 32 24 l28 17 0 -233 c0 -213 -2 -236 -19 -258 -30 -38 -81 -139 -102
-202 -32 -93 -39 -187 -24 -307 14 -116 12 -133 -17 -162 -15 -16 -38 -29 -50
-29 -53 -4 -113 2 -122 11 -6 6 -16 10 -23 10 -8 0 -33 9 -55 20 -23 11 -42
19 -44 17 -2 -2 -20 -71 -56 -214 -6 -23 -8 -49 -4 -58 3 -9 2 -14 -3 -11 -6
4 -36 -98 -33 -111 0 -2 -4 -17 -9 -35 -5 -18 -12 -44 -14 -58 -3 -14 -14 -65
-26 -115 -25 -108 -21 -92 -53 -237 -31 -140 -134 -650 -151 -743 -28 -157
-55 -312 -59 -345 -15 -102 -27 -177 -31 -190 -2 -8 -6 -42 -10 -75 -3 -33 -8
-73 -11 -90 -10 -62 -19 -145 -30 -280 -10 -108 -11 -428 -2 -490 9 -59 25
-110 47 -145 30 -49 155 -215 176 -236 12 -11 26 -28 31 -37 20 -36 264 -274
264 -259 0 4 5 -1 11 -10 19 -34 309 -213 309 -192 0 4 6 1 13 -5 25 -20 140
-52 228 -64 85 -11 87 -10 141 17 93 47 183 143 291 311 58 91 126 222 119
229 -3 3 0 6 6 6 7 0 12 4 12 10 0 5 14 39 31 75 16 35 30 67 29 70 0 3 7 19
15 35 9 17 12 30 8 30 -5 0 -3 4 3 8 14 10 126 321 125 347 0 2 6 23 14 45 8
22 14 41 14 43 -1 1 4 22 11 46 23 85 60 283 55 291 -3 5 -1 11 4 15 5 3 9 13
9 23 -1 25 14 156 18 164 3 4 0 9 -5 13 -6 3 -7 15 -2 28 12 34 3 168 -15 232
-2 6 -6 23 -9 39 -3 16 -10 37 -15 47 -14 25 -12 36 3 17 25 -32 121 -99 133
-94 8 3 13 0 11 -5 -2 -11 129 -85 193 -108 19 -7 44 -17 55 -22 20 -9 157
-47 195 -54 12 -2 29 -6 38 -9 9 -3 42 -8 72 -12 131 -16 131 -16 35 31 -201
98 -326 183 -442 302 -146 151 -197 305 -156 473 18 73 4 200 -33 298 -25 68
-98 192 -144 247 -66 79 -252 255 -269 255 -5 0 -12 7 -15 16 -3 8 -10 12 -16
9 -9 -5 -14 6 -12 25 3 33 11 90 16 110 3 14 8 39 11 55 2 17 10 54 15 84 6
29 9 56 6 59 -3 3 -1 11 4 17 6 7 12 30 15 51 8 71 17 109 26 118 6 6 9 5 9
-4 0 -8 11 -30 24 -49 13 -20 45 -71 71 -113 27 -43 52 -78 57 -78 4 0 8 -5 8
-11 0 -19 63 -99 73 -92 6 3 7 1 4 -5 -7 -10 61 -99 143 -186 84 -88 212 -161
267 -151 10 2 24 4 30 4 19 1 78 61 95 96 31 63 44 146 54 345 9 191 10 271 2
276 -4 3 -3 16 2 30 6 14 8 29 6 33 -3 4 -8 124 -11 267 -3 142 -8 288 -10
324 -2 36 -7 128 -10 205 -4 77 -8 165 -10 195 -2 30 -7 107 -11 170 -3 63 -8
131 -9 150 -2 19 -6 87 -10 150 -3 63 -11 120 -16 126 -7 8 -7 14 0 18 5 4 8
16 6 28 -4 20 -8 73 -20 243 -12 184 -16 243 -20 275 -2 19 -7 69 -10 110 -3
41 -8 104 -11 140 -3 36 -7 90 -9 120 -5 67 -14 179 -20 240 -3 25 -7 79 -10
120 -3 41 -8 91 -10 110 -2 19 -7 73 -11 120 -3 47 -11 88 -18 92 -8 6 -8 8 0
8 6 0 10 12 8 28 -3 24 -7 68 -19 192 -2 19 -6 71 -10 115 -3 44 -8 91 -10
105 -2 14 -6 61 -10 105 -3 44 -8 98 -11 120 -10 87 -14 123 -19 190 -3 39 -7
88 -10 110 -2 22 -7 74 -10 115 -4 41 -8 86 -10 100 -3 14 -7 52 -10 85 -12
134 -13 135 -85 240 -12 17 -52 75 -90 130 -38 55 -81 118 -97 140 -16 22 -67
93 -112 157 -46 65 -88 115 -94 111 -6 -3 -7 -1 -3 5 5 9 -200 300 -234 332
-3 3 -32 41 -65 85 -33 44 -63 82 -66 85 -3 3 -45 54 -92 113 -155 193 -300
356 -310 350 -6 -3 -7 -1 -3 5 11 18 -332 355 -452 445 -57 42 -109 74 -114
70 -6 -3 -8 -1 -5 4 6 9 -10 22 -33 27 -3 1 -16 8 -30 16 -14 8 -27 15 -30 16
-44 10 -212 97 -284 147 -39 26 -87 59 -107 72 -20 13 -42 29 -50 37 -8 7 -30
25 -49 38 -19 13 -37 27 -40 30 -24 28 -415 330 -428 330 -6 0 -12 4 -14 8 -6
16 -98 73 -108 67 -6 -4 -9 -1 -8 5 2 6 -15 21 -37 33 -22 12 -42 24 -45 28
-13 14 -80 50 -80 42 0 -4 -4 -3 -8 3 -15 23 -202 112 -342 162 -98 36 -287
88 -345 96 -22 3 -66 10 -98 16 -32 6 -65 10 -75 9 -9 -1 -19 0 -22 1 -26 10
-78 12 -287 15 -133 2 -243 1 -245 0z m-600 -1561 c59 -2 125 -6 147 -9 22 -3
60 -8 85 -11 94 -11 105 -13 105 -14 0 -1 13 -4 29 -6 23 -4 305 -76 341 -87
125 -40 251 -83 310 -107 42 -17 442 -172 490 -190 28 -10 82 -28 120 -40 39
-11 84 -25 100 -30 17 -5 64 -18 106 -29 96 -25 391 -102 404 -105 6 -2 28 -7
50 -11 22 -5 42 -10 45 -10 3 -1 19 -5 35 -9 17 -4 55 -13 85 -21 30 -8 73
-17 95 -20 22 -3 47 -9 55 -12 8 -3 24 -7 35 -8 19 -3 216 -41 260 -50 19 -4
21 -12 22 -107 1 -156 16 -588 28 -843 4 -71 8 -168 11 -215 2 -47 6 -123 9
-170 7 -94 12 -172 20 -299 3 -46 7 -104 10 -130 4 -42 12 -148 20 -258 l3
-42 -206 7 c-407 13 -797 7 -901 -13 -9 -2 -45 -6 -81 -10 -36 -4 -67 -8 -70
-10 -3 -2 -30 -6 -60 -10 -70 -9 -264 -48 -366 -74 -117 -30 -208 -63 -314
-114 -163 -79 -237 -91 -540 -92 -300 0 -369 12 -536 91 -91 43 -294 118 -294
109 0 -3 -12 0 -26 5 -45 17 -304 69 -419 85 -22 2 -71 9 -110 14 -143 20
-256 26 -490 25 -246 0 -727 -12 -767 -19 -13 -2 -69 -6 -125 -10 l-103 -6 6
33 c3 18 11 51 16 73 6 22 12 47 14 55 9 35 36 157 40 180 3 14 7 32 10 40 4
12 35 160 79 380 5 25 30 156 40 215 3 17 12 64 20 105 8 41 17 93 20 115 10
64 12 68 78 115 34 24 93 69 132 100 38 30 76 60 83 65 7 6 23 19 35 30 12 11
40 33 62 50 21 16 46 36 55 45 8 8 27 24 41 35 31 24 109 91 238 204 53 46
103 90 111 97 8 7 28 24 43 38 15 14 30 26 33 26 5 0 85 60 94 71 3 3 24 19
47 36 23 17 39 34 35 38 -4 5 -2 5 4 2 6 -4 21 1 32 11 23 19 29 23 152 119
47 36 84 70 82 75 -1 5 1 7 6 4 8 -5 50 29 124 100 24 23 46 60 64 107 23 62
52 127 88 196 10 19 77 62 116 74 29 8 120 18 196 21 29 1 56 5 60 9 4 3 11 4
16 1 5 -4 58 -8 116 -10z m-643 -3053 c202 -42 353 -109 440 -196 19 -18 70
-90 86 -120 16 -28 41 -133 54 -220 7 -48 7 -206 0 -249 -2 -17 -7 -47 -10
-66 -16 -112 -55 -237 -115 -367 -96 -207 -266 -403 -418 -481 -145 -75 -309
-124 -562 -167 -19 -3 -107 -8 -195 -10 -311 -7 -546 64 -700 212 -128 122
-241 310 -304 503 -31 96 -33 106 -51 215 -18 110 -20 130 -29 215 -29 288 27
455 194 580 103 77 235 128 397 155 137 22 134 22 638 20 441 -1 471 -2 575
-24z m3390 13 c133 -16 145 -19 228 -44 76 -24 72 -15 92 -177 12 -99 15 -123
30 -228 24 -170 63 -379 91 -495 14 -58 28 -115 30 -127 2 -12 20 -66 38 -120
l35 -98 -26 -55 c-64 -140 -214 -329 -313 -397 -144 -98 -342 -150 -579 -151
-119 0 -297 17 -386 38 -27 6 -57 13 -65 15 -50 10 -195 57 -250 80 -124 51
-191 96 -279 184 -132 133 -238 308 -304 501 -28 81 -31 93 -52 215 -14 79
-14 314 -1 380 12 59 40 141 61 176 94 166 328 278 640 309 140 13 887 9 1010
-6z m-5197 -104 c-1 -29 -28 -53 -28 -24 0 16 18 54 25 54 2 0 3 -13 3 -30z"/>
<path d="M5880 4769 c-91 -60 -173 -116 -183 -124 -9 -8 -20 -15 -23 -15 -3 0
-31 -17 -62 -37 -31 -20 -69 -44 -83 -53 -14 -8 -83 -50 -155 -93 -71 -43
-137 -83 -146 -88 -10 -5 -26 -13 -35 -19 -64 -36 -175 -80 -202 -80 -52 0
-177 -145 -206 -240 -1 -3 -7 -17 -13 -33 -7 -15 -14 -39 -16 -52 -3 -14 -7
-28 -10 -33 -10 -17 -19 -121 -19 -222 0 -114 26 -241 68 -335 l23 -50 11 28
c14 35 121 248 151 302 13 22 34 60 47 85 50 94 100 159 143 187 25 17 72 47
105 69 33 21 62 41 63 46 2 4 9 8 16 8 7 0 21 8 32 18 11 11 25 21 30 23 11 4
339 225 506 341 l88 60 92 -59 c111 -70 145 -84 219 -90 56 -5 68 -2 169 45
45 20 133 74 141 85 6 9 74 -21 144 -62 17 -10 33 -16 38 -14 4 2 7 -1 7 -6 0
-6 4 -11 9 -11 5 0 47 -22 94 -50 47 -27 90 -50 96 -50 6 0 11 -4 11 -8 0 -5
15 -16 33 -25 17 -10 44 -25 59 -35 14 -9 48 -30 74 -46 75 -45 237 -171 280
-217 21 -23 47 -50 57 -60 9 -11 15 -19 12 -19 -6 0 45 -92 55 -100 4 -3 9
-12 12 -20 6 -14 121 -164 150 -194 7 -8 33 -37 58 -66 100 -116 149 -164 154
-149 2 8 8 28 12 44 4 17 9 35 11 40 20 59 36 191 36 315 1 126 -2 154 -22
210 -33 93 -64 137 -147 205 -40 33 -86 71 -101 84 -15 13 -59 48 -98 77 -138
104 -351 264 -379 286 -17 13 -33 22 -38 21 -4 -2 -8 1 -8 6 0 5 -37 36 -82
68 -46 33 -130 93 -188 135 l-105 76 -90 -23 c-50 -13 -114 -26 -144 -30 -30
-4 -63 -9 -75 -11 -33 -6 -216 -6 -261 1 -80 11 -190 37 -202 47 -7 6 -13 7
-13 2 0 -4 -5 -3 -12 4 -7 7 -14 12 -17 11 -4 0 -80 -50 -171 -110z"/>
<path d="M3883 3280 c9 -14 20 -32 24 -40 4 -8 11 -19 16 -25 22 -26 114 -162
120 -177 3 -10 11 -18 17 -18 5 0 10 -4 10 -10 0 -11 118 -181 133 -191 5 -3
8 -9 8 -13 -1 -3 22 -41 51 -82 29 -42 61 -88 70 -103 23 -35 28 -42 101 -146
34 -49 85 -124 112 -165 28 -41 52 -77 55 -80 3 -3 39 -54 80 -115 41 -60 77
-111 82 -113 4 -2 8 -8 8 -13 0 -5 18 -35 40 -67 22 -31 77 -111 122 -177 45
-66 95 -138 110 -160 15 -22 69 -101 120 -175 50 -74 103 -151 117 -170 14
-19 31 -43 36 -52 29 -48 239 -348 244 -348 4 0 39 30 78 68 40 37 74 67 75
67 4 0 92 75 161 137 31 27 45 34 54 26 7 -6 13 -14 13 -18 0 -5 16 -37 36
-72 21 -34 51 -90 69 -123 18 -33 76 -139 130 -235 54 -96 108 -193 120 -215
12 -22 45 -83 75 -135 29 -52 62 -112 72 -132 11 -21 23 -38 27 -38 4 0 60
161 125 358 65 196 124 373 131 392 8 19 22 60 30 90 31 104 27 103 78 25 25
-38 59 -88 76 -110 17 -22 37 -49 45 -60 153 -201 280 -315 351 -315 22 0 40
15 96 80 23 27 235 346 263 395 9 17 24 42 34 56 16 25 73 118 97 157 6 10 26
44 46 77 21 33 46 76 57 96 41 74 47 84 53 89 4 3 16 23 28 45 12 22 33 58 46
80 14 22 35 58 46 80 12 22 24 42 28 45 15 12 31 52 25 62 -4 6 -3 8 3 5 6 -4
18 8 27 26 9 17 27 50 41 72 13 22 30 51 38 65 7 14 50 89 95 167 45 78 82
146 82 152 0 5 4 11 8 13 5 2 79 129 167 283 87 154 173 306 192 338 18 32 33
59 33 61 0 2 22 42 50 90 27 48 50 91 50 96 0 6 3 10 8 10 4 0 16 20 27 45 11
25 24 45 29 45 5 0 7 3 3 6 -8 8 -303 -285 -299 -297 1 -6 -2 -8 -7 -5 -5 3
-29 -13 -53 -37 -60 -58 -140 -131 -220 -201 -37 -32 -65 -63 -61 -69 3 -5 1
-7 -4 -4 -6 4 -21 -3 -34 -14 -128 -112 -338 -281 -499 -402 -41 -31 -80 -61
-87 -67 -7 -5 -17 -10 -23 -10 -5 0 -10 -3 -10 -7 0 -5 -18 -19 -40 -32 -21
-14 -37 -27 -35 -31 2 -4 -2 -7 -9 -7 -7 0 -57 -29 -112 -65 -105 -70 -318
-191 -353 -203 -12 -3 -18 -11 -15 -17 4 -6 2 -8 -4 -4 -11 7 -121 -41 -134
-59 -4 -5 -8 -7 -8 -3 0 4 -36 -7 -80 -23 -71 -26 -124 -40 -195 -55 -11 -2
-31 -6 -45 -9 -78 -16 -251 -4 -365 27 -22 5 -47 11 -55 13 -8 2 -28 8 -45 15
-16 6 -30 10 -30 9 0 -3 -75 20 -100 31 -11 5 -45 19 -75 31 -124 49 -285 128
-436 215 -183 105 -484 299 -538 347 -11 9 -23 17 -26 17 -4 0 -19 10 -33 23
-14 12 -51 40 -82 62 -94 68 -397 308 -485 385 -14 12 -45 38 -69 58 -24 21
-68 60 -99 87 -30 28 -59 49 -64 48 -4 -2 -8 4 -8 12 0 8 -3 15 -7 15 -9 0
-61 47 -188 169 -43 42 -72 65 -62 51z"/>
<path d="M5565 3133 c14 -21 29 -43 35 -50 5 -7 10 -15 10 -18 0 -9 63 -99 73
-103 4 -2 7 -8 7 -13 0 -4 44 -75 97 -156 54 -81 102 -155 108 -164 5 -10 26
-42 45 -73 19 -31 39 -56 45 -56 5 1 30 27 54 60 24 32 57 73 72 90 16 17 40
46 55 65 14 19 30 35 34 35 4 0 12 -19 19 -42 12 -43 85 -280 101 -328 6 -21
9 -22 14 -7 3 9 9 25 13 35 3 9 29 86 57 169 l51 153 50 -46 c28 -24 80 -74
116 -110 l67 -65 26 34 c14 19 26 39 26 45 0 7 4 12 9 12 5 0 13 10 17 23 4
12 10 24 13 27 7 5 50 70 181 275 46 72 100 155 121 186 37 57 33 67 -12 38
-48 -30 -238 -109 -304 -125 -40 -10 -45 -11 -47 -13 -2 -2 -14 -4 -28 -7 -14
-2 -50 -9 -80 -15 -77 -14 -142 -21 -235 -23 -44 -1 -85 -5 -92 -9 -6 -4 -14
-3 -17 1 -3 5 -21 9 -39 10 -19 1 -49 4 -66 7 -17 3 -51 7 -75 10 -25 2 -82
14 -128 26 -46 11 -87 22 -93 24 -40 9 -213 80 -263 107 -29 15 -54 28 -57 28
-2 0 7 -17 20 -37z"/>
</g>
</svg>
