<svg id="Layer_1" data-name="Layer 1" xmlns="http://www.w3.org/2000/svg" viewBox="0 0 144.75 151.5"><defs><style>.cls-1{fill:#d26828;}.cls-1,.cls-10,.cls-11,.cls-2,.cls-3,.cls-4,.cls-5,.cls-6,.cls-7,.cls-8,.cls-9{fill-rule:evenodd;}.cls-2{fill:#e57125;}.cls-3{fill:#7b4522;}.cls-4{fill:#8f5024;}.cls-5{fill:#72401f;}.cls-6{fill:#eb7523;}.cls-7{fill:#da6d26;}.cls-8{fill:#ca5828;}.cls-9{fill:#ed7f22;}.cls-10{fill:#231815;}.cls-11{fill:#883922;}</style></defs><title>Artboard 1</title><path class="cls-1" d="M56.23,24.81c10.55-4.64,19.92-5.26,34.49,0C122.14,36.22,123,135.56,68.62,134.62,19.56,133.77,45.67,29.45,56.23,24.81Z"/><path class="cls-2" d="M89.38,34.58c31.38-28.94,73.85,36.31,26.93,95.25-23.77,16.75-37.56.43-37.56.43S85.77,37.25,89.38,34.58Z"/><path class="cls-2" d="M64.81,33.45s-12.43-11.36-32-4.89c-17.12,5.66-34.64,57.37-.77,99.65,24.78,17.15,40.24,1.07,40.24,1.07S68.58,36.18,64.81,33.45Z"/><path class="cls-3" d="M94.33,36.87c-1.46-.66-15.19-7.79-16.51-9.14-6-6.11-4.33-11.44-1.38-14.48,12.64-13,25,12.34,11,6.82.16,1.23-.11,2.66,0,2.73C99.54,30.37,105.16,3.12,88.84.61,65-3.07,58.7,12.24,65,28.52c0,0-4.87,6-15.18,6.73C65.25,50,80.18,52.2,94.33,36.87Z"/><path class="cls-4" d="M72.42,12.27C76.79,8.57,84,7.74,84.77,8.19l-3.29-2s7.63.31,10.23,3.73a11.22,11.22,0,0,1,2.34,7.29c.07-.34.35-1.63.78-4.33a11.12,11.12,0,0,0-1.1-6.52,18.34,18.34,0,0,1,2.72,7.51,21.58,21.58,0,0,1-.41,6.5c3.7-5.71,2.57-17.45-7.59-19C81,.17,75.29,1,71.31,3.22a23.17,23.17,0,0,0-2.92,4.45s7.46-3.61,7.79-3.61S71,7.44,68.57,11.66c-1.42,2.52-1.81,6.58-1.92,9.57-.07,2,0,3.58-.05,3.81a37.63,37.63,0,0,1,1-4C68.48,18.13,70,14.31,72.42,12.27Z"/><path class="cls-5" d="M89,35.12a24.27,24.27,0,0,1-8-3.34c-6-3.94-7.48-7.38-8.28-10.42l-.06-.26c-.68-3,.3-7.06,0-6.58a17.72,17.72,0,0,0-2.43,6.65,14.51,14.51,0,0,0-.16,3c.25,5,5.28,11.57,4.64,10.82s-7-7.33-7-7.33l.85,5.73c-.15-1-1.89-3.53-2.59-6.38l-1,1.53a15.82,15.82,0,0,1-3.18,2.75,21.51,21.51,0,0,1,3,2.18c.48.35,1,2.16,1.43,5.06a15.19,15.19,0,0,1,7.32-1.83,17.68,17.68,0,0,1,12.18,4.48A16.46,16.46,0,0,1,88,38.78,19.6,19.6,0,0,1,89,35.12Z"/><path class="cls-6" d="M104,41.76s4.67-12.65,23.47-2.85c12.35,6.44,33.47,60.63-1.09,94.17-23.36,18.63-28.53.69-28.53.69S101.05,44.32,104,41.76Z"/><path class="cls-7" d="M119.16,68.75v0a69.25,69.25,0,0,0-2.28-11.43,80.15,80.15,0,0,0-4.81-11.14c9.06,11,17.66,22,8.22,79.05-.16,2.2-.67,4.58.42,6.63,23.43-18,24.34-46.91,24.59-47.91.21,21.07-4,33-17.38,48.42-7.19,8.31-17.12,10.95-22.58,10.72-1.23-.05-3.39-.9-4.47-.31,7.79-2.8,16-28.2,17.74-35.89,1.29-5.83,1.38-12.07,1.42-18A151.62,151.62,0,0,0,119.16,68.75Z"/><path class="cls-8" d="M107.28,37.55c-2.21,36.78-2.23,103.55-7.55,106.35C117.39,145.29,137.92,63.12,107.28,37.55Z"/><path class="cls-6" d="M85.06,42.11s7.16-11.87,21.59-4.9c12.63,6.11,26.49,60.14-.39,103.32-19.17,17.35-30.18.51-30.18.51S82.15,44.88,85.06,42.11Z"/><path class="cls-7" d="M95.31,60.14c8.67,52,1.48,78.31,5.14,78.08,10.3-.66,14.75-18.32,16.16-20.24-1.55,7.55-5.7,16.1-10.35,22.55-3.85,6.16-12.66,8-19.24,6.41a14.88,14.88,0,0,0,1.64-3.2,59.19,59.19,0,0,0,3.49-9.91,228.53,228.53,0,0,0,4.44-26.22C97.53,100.13,95.77,67.66,95.31,60.14Z"/><path class="cls-8" d="M87.35,148.18s8.16-7.68,11.36-36.53-1.28-61-13-70.49c-1,23.41.94,104.79-2.61,106.28C83.72,147.45,87.35,148.18,87.35,148.18Z"/><path class="cls-9" d="M121.49,91.21c-4.61-33.92-11.16-52.16-29.18-55.09C120.78,26.46,122.59,79.45,121.49,91.21Z"/><path class="cls-6" d="M43.08,42s-.43-10.78-17.78-8.77c-7.23.83-13.38,7.4-17.39,17.29-.24.43-.46.87-.67,1.34C2.07,63.47-.5,79.53.72,91.92c.72,7.25,1.45,13.43,3.76,20.34a56.25,56.25,0,0,0,11.57,19.9A32.23,32.23,0,0,0,34.2,142c4.13.76,11.48,1.16,16-.25-.69-.36-4.77-4.92-6.49-6.67a30,30,0,0,0,4.35-3.27S45.89,44.62,43.08,42Z"/><path class="cls-7" d="M.55,81c-.31,19,2.67,36.84,15.49,51.11A32.14,32.14,0,0,0,34.16,142a37.94,37.94,0,0,0,12.8.28c-2.38-1-4.2-6.34-5.23-8.79C18.85,132.83,6.52,122,.55,81Z"/><path class="cls-8" d="M40.61,140.31c-17.89-19-23-82.45-1.07-104.5-5.09,38.44.23,101.28,4.05,102.24A17.08,17.08,0,0,0,40.61,140.31Z"/><path class="cls-6" d="M65.22,40.42S57.65,28.68,44,32.63,15,94.83,40.12,138.45c12.58,21.69,30.16,1,30.16,1S68,43.24,65.22,40.42Z"/><path class="cls-7" d="M26.55,84.38c-1.42,18.68,3.92,38.76,12.8,54.07,2.67,4.61,8.38,10.36,14.26,10.24,2.81-.06,9.42,0,11.58-1.65,1.06-.83.77-.73,1.85-1.51.92-.65-1-3.43-.15-4.17-3.94,0-6-3.93-8.21-6.52-6.07-7.1-8.55-47.23-10.51-56.14C42.82,99.7,45,119,43,125.15c-.94,2.91-3.27,4-5.23,1.74C31.22,119.37,27.12,95.05,26.55,84.38Z"/><path class="cls-8" d="M64.58,39.55c.12,23.42-3.93,107-.45,108.5C35.85,147.81,42.05,54,64.58,39.55Z"/><path class="cls-6" d="M47.2,95.87C49.77,64.4,55.69,36.7,73.56,36.68c20.29,0,24.92,27.13,24.78,58.66-.21,49.12-14.12,56-27,55.3C55.25,149.75,44.13,133.54,47.2,95.87Z"/><path class="cls-7" d="M64.58,39.55C33,107.23,77.6,170.1,96,124.83c-5,23-16.07,26.1-24.13,26C34.93,151.87,42.37,58.1,64.58,39.55Z"/><path class="cls-9" d="M67.61,43.3s7.64-9.75,17-.48c8.19,8.09,14.48,30,10.17,55.34C92.19,59.84,80.79,40,67.61,43.3Z"/><path class="cls-9" d="M140.29,74.56c-7.45-23.36-16-31.36-19.94-33.46-2.62-5.33,6.69-2.94,9.14.47C141.09,56.88,142.83,75.09,140.29,74.56Z"/><path class="cls-9" d="M29,89.33c3.13-34.84,13.09-53.87,31.25-50.65C31.5,20.75,28.43,78.39,29,89.33Z"/><path class="cls-9" d="M29.69,39.86c.8-3.29-3-2.41-6.59-.82C12.3,45,10,73.38,10.48,73.36,10.19,74.43,19.13,43.66,29.69,39.86Z"/><polygon class="cls-10" points="24.9 84.48 59.62 88.15 36.33 62.18 24.9 84.48"/><polygon class="cls-10" points="122.57 82.07 88.08 87.51 110.01 60.38 122.57 82.07"/><polygon class="cls-10" points="83.86 103.7 65.09 104.01 73.76 84.72 83.86 103.7"/><path class="cls-10" d="M107.09,108.33l1,5.21L95,116.73c-.69-.3-1-2.57-1.89-4.62a118.28,118.28,0,0,1-36.87.45l-1.79,5.12-14.21-2.84c-.32-.39-.26-3,.29-5.68-12.67-5.28-17.25-8-20.49-14.09,3,27.5,18.18,35.64,34,39.43l2.07-5.44,10.82,1.6c.57,1.72-.09,3.83.59,5.73A73.17,73.17,0,0,0,80.31,136s4.2-.48,9.29-1.27l0-6.42,10.74-1.75c1.09.13,1.35,2.95,3.14,5.34l.93-.3c18.14-7.69,18.45-25.48,21.67-35.11A65.87,65.87,0,0,1,107.09,108.33Z"/><path class="cls-11" d="M43.11,124.92c-1-.43-2-.9-3-1.4a38.1,38.1,0,0,1-6.56-4.32,33.9,33.9,0,0,1-2.53-2.3c-.41-.41-.81-.83-1.2-1.27s-1-1.09-1.41-1.67c-3.6-4.56-6.4-10.46-8-18.22-.13-.22-.25-.44-.37-.67,1.37,12.68,5.34,21.24,10.77,27.16.57.62,1.16,1.22,1.76,1.79.4.37.81.74,1.23,1.09a37.28,37.28,0,0,0,7.27,4.82,48.94,48.94,0,0,0,6.17,2.61c.64.23,1.27.43,1.91.63.48.15,1,.3,1.44.43l.25.08c1,.29,2.1.57,3.15.82L55.31,131l.72-1.88,0-.08,6.66,1,2.38.35,1.78.26a7.39,7.39,0,0,1,.26,2.28V133c0,.52,0,1,0,1.56a6.34,6.34,0,0,0,.32,1.83c1,.05,1.86.08,2.74.1h.51c2.2,0,4.13,0,5.66-.13,2.47-.15,3.93-.36,3.93-.36s1.81-.21,4.49-.57l1.07-.15c1.14-.16,2.41-.34,3.73-.55l0-5.93v-.49l.94-.15,3-.48,1.33-.22.42-.07.15,0,.71-.12,1.94-.31,1.45-.24.85-.14c.95.12,1.27,2.25,2.51,4.37a11.44,11.44,0,0,0,.63,1l.93-.3a31,31,0,0,0,7.31-4.3c.46-.37.9-.74,1.33-1.13l.89-.84.74-.76c.57-.62,1.11-1.24,1.62-1.89a37.81,37.81,0,0,0,6.16-12.45c1.57-5.1,2.38-10,3.62-13.74l-.22.2a86.49,86.49,0,0,1-3,10.45,35.94,35.94,0,0,1-4.25,8.13,30.7,30.7,0,0,1-1.92,2.41c-.61.69-1.27,1.36-2,2a31.05,31.05,0,0,1-9.25,5.83l-1,.3a10.49,10.49,0,0,1-1-1.68c-.95-1.87-1.3-3.56-2.16-3.66l-1.62.25-1.4.23h0l-.9.14-.87.14-1.87.3-5.53.87,0,6.43c-1.55.23-2.9.42-4,.57-2.69.36-4.18.51-4.18.51s-.75.1-2.09.22c-.56.05-1.23.1-2,.14-1.57.09-3.53.16-5.77.13l-1,0c-.74,0-1.51,0-2.3-.08-.69-1.9,0-4-.6-5.73l-4.42-.64-1.59-.23-5-.73-1,2.66L54,128.42c-1-.24-2-.49-3-.76-.77-.21-1.53-.43-2.29-.67l-.15,0-.66-.22-.58-.19C45.91,126.06,44.5,125.52,43.11,124.92Z"/><polygon class="cls-11" points="78.89 100.39 70.96 100.52 69.14 100.55 66.63 100.59 65.09 104.01 69.26 103.94 71.13 103.91 78.63 103.79 80.9 103.75 83.86 103.7 82.06 100.33 81.19 100.35 78.89 100.39"/><polygon class="cls-11" points="53.67 83.52 48.88 83.01 48.49 82.97 47.43 82.86 47.2 82.83 46.7 82.78 46.41 82.75 40.01 82.07 37.52 81.81 29.94 81.01 29.11 80.92 26.84 80.68 26.78 80.8 25.07 84.15 24.9 84.48 25.07 84.5 26.53 84.65 26.57 84.66 26.71 84.67 28.97 84.91 29.46 84.96 37.6 85.82 39.84 86.06 46.2 86.73 46.44 86.76 46.58 86.77 46.94 86.81 48.04 86.92 49.41 87.07 53.59 87.51 59.62 88.15 55.65 83.72 53.67 83.52"/><polygon class="cls-11" points="91.98 82.68 88.08 87.51 93.69 86.63 96.09 86.25 96.56 86.17 98.23 85.91 98.62 85.85 99.53 85.7 99.96 85.64 105.38 84.78 111.92 83.75 120.01 82.47 120.19 82.44 121.65 82.21 121.68 82.21 122.57 82.07 121.62 80.44 121.6 80.4 120.33 78.21 119.91 78.27 119.49 78.34 112.23 79.49 105.53 80.54 100.19 81.39 99.28 81.53 98.22 81.7 98.06 81.72 96.4 81.98 96.2 82.02 93.11 82.5 91.98 82.68"/><path class="cls-11" d="M58.34,112.84l-1.4-.18-.7-.1-1.79,5.12,3.11-1,.25-1.22Z"/><path class="cls-11" d="M90.72,112.52l1.54,3.42,2.74.79c-.69-.3-1-2.57-1.89-4.62C92.32,112.26,91.52,112.39,90.72,112.52Z"/></svg>