<svg xmlns="http://www.w3.org/2000/svg" viewBox="0 0 165.87 179.84"><defs><style>.cls-1{isolation:isolate;}.cls-2,.cls-3{fill:#8cb347;}.cls-3{mix-blend-mode:multiply;}.cls-4{fill:#603e2a;}</style></defs><title>tree</title><g class="cls-1"><g id="Layer_1" data-name="Layer 1"><path class="cls-2" d="M165.52,79.45a31.85,31.85,0,0,0-6.66-17.07,32.35,32.35,0,0,0-8-37.89l-7-4.69A32.49,32.49,0,0,0,131,16.48c-4.58-8.37-13.9-13.16-24-13.16a21.34,21.34,0,0,0-14.43,5.9Q89.2,7,85.85,4.71A40.69,40.69,0,0,0,64.79.62L54.55,2.77a40.63,40.63,0,0,0-17,11.45c-.23.26-.45.52-.67.79a36,36,0,0,0-11-1.53C10.93,13.48-.44,28.93.64,43A27.62,27.62,0,0,0,9.46,61.08a44.62,44.62,0,0,0,11.79,50.71l9.63,6.47a45.13,45.13,0,0,0,23.36,4.54l1-.21c5.38,3.84,11.48,5.09,18.22,5.09a23,23,0,0,0,14-4.93l7.71.45c5.29,4.07,11.32,5.38,18,5.38,9.64,0,17.72-6.71,21.65-15.19l1.55,0C153.66,113.41,166.76,95.62,165.52,79.45Z"/><path class="cls-3" d="M79.29,118c-28.38,0-52.07-23.68-52.07-52.06A52,52,0,0,1,43.5,28.4,53,53,0,0,1,72.2,7.85a51.71,51.71,0,0,1,4.9-6.27,40.73,40.73,0,0,0-12.31-1L54.55,2.77a40.63,40.63,0,0,0-17,11.45c-.23.26-.45.52-.67.79a36,36,0,0,0-11-1.53C10.93,13.48-.44,28.93.64,43A27.62,27.62,0,0,0,9.46,61.08a44.62,44.62,0,0,0,11.79,50.71l9.63,6.47a45.13,45.13,0,0,0,23.36,4.54l1-.21c5.38,3.84,11.48,5.09,18.22,5.09a23,23,0,0,0,14-4.93l6.26.36A52.68,52.68,0,0,1,84,117.76C82.47,117.91,80.89,118,79.29,118Z"/><path class="cls-3" d="M111.33,127.06a50.77,50.77,0,0,1-14.7-2.84,27.88,27.88,0,0,0,14.76,4.32C111.36,128.05,111.34,127.56,111.33,127.06Z"/><polygon class="cls-4" points="80 179.51 90 79.51 94 79.51 104 179.51 80 179.51"/><line class="cls-2" x1="93.58" y1="114.47" x2="109.3" y2="98.75"/><polygon class="cls-4" points="90.05 110.93 108.71 98.16 109.89 99.34 97.12 118 90.05 110.93"/><line class="cls-2" x1="93.58" y1="136.47" x2="77.86" y2="120.75"/><polygon class="cls-4" points="90.05 140 77.27 121.34 78.45 120.16 97.12 132.93 90.05 140"/></g></g></svg>